The Three Musketeers 3D (2011) 1080p DTS NL Subs Half-SBS
.
[IMG]http://img221.imageshack.us/img221/1042/3mt2012swq.jpg[/IMG]
.
Verenigde Staten / Verenigd Koninkrijk / Frankrijk / Duitsland
Actie / Avontuur
110 minuten

geregisseerd door Paul W.S. Anderson
met Milla Jovovich, Logan Lerman en Matthew Macfadyen

The Three Musketeers speelt zich af in de 17e eeuw en gaat over D'Artagnan die in zijn strijd met Kardinaal Richelieu de samenwerking aangaat met de drie musketiers Athos, Porthos en Aramis. D'Artagnan kan de hulp goed gebruiken en samen met de drie musketiers probeert hij de snode plannen van Kardinaal Richelieu, om de koning tot aftreden te dwingen, te dwarsbomen.

Vanaf 21 februari te huur
Vanaf 28 februari te koop op DVD en Blu-Ray
. 
http://www.moviemeter.nl/film/69862
.
PLOT
.
The hot-headed young D'Artagnan along with three former legendary but now down on their luck Musketeers must unite and defeat a beautiful double agent and her villainous employer from seizing the French throne and engulfing Europe in war. 
. 
http://www.imdb.com/title/tt1509767/
.
INFO
.
NL Vertaling: SRT-TEAM
.
Format                           : AVC
Format/Info                      : Advanced Video Codec
Format profile                   : High@L4.1
Format settings, CABAC           : Yes
Format settings, ReFrames        : 2 frames
Muxing mode                      : Container profile=Unknown@4.1
Codec ID                         : V_MPEG4/ISO/AVC
Duration                         : 1h 50mn
Bit rate                         : 9 706 Kbps
Width                            : 1 920 pixels
Height                           : 1 080 pixels
Display aspect ratio             : 16:9
Frame rate                       : 23.976 fps
Color space                      : YUV
Chroma subsampling               : 4:2:0
Bit depth                        : 8 bits
Scan type                        : Progressive
Bits/(Pixel*Frame)               : 0.195
Stream size                      : 7.49 GiB (85%)
Writing library                  : x264 core
Color primaries                  : BT.709-5, BT.1361, IEC 61966-2-4, SMPTE RP177
Transfer characteristics         : BT.709-5, BT.1361
Matrix coefficients              : BT.709-5, BT.1361, IEC 61966-2-4 709, SMPTE RP177

Audio
ID                               : 2
Format                           : DTS
Format/Info                      : Digital Theater Systems
Codec ID                         : A_DTS
Duration                         : 1h 50mn
Bit rate mode                    : Constant
Bit rate                         : 1 510 Kbps
Channel(s)                       : 6 channels
Channel positions                : Front: L C R, Side: L R, LFE
Sampling rate                    : 48.0 KHz
Bit depth                        : 24 bits
Stream size                      : 1.17 GiB (13%)
Language                         : English

Menu
00:00:00.000                     : en:(01)00:00:00:000
00:06:09.786                     : en:(02)00:06:09:786
00:12:20.406                     : en:(03)00:12:20:406
00:17:31.592                     : en:(04)00:17:31:592
00:23:52.180                     : en:(05)00:23:52:180
00:31:28.678                     : en:(06)00:31:28:678
00:35:56.487                     : en:(07)00:35:56:487
00:42:31.549                     : en:(08)00:42:31:549
00:47:04.613                     : en:(09)00:47:04:613
00:53:17.319                     : en:(10)00:53:17:319
00:59:14.634                     : en:(11)00:59:14:634
01:04:40.042                     : en:(12)01:04:40:042
01:08:33.109                     : en:(13)01:08:33:109
01:14:24.418                     : en:(14)01:14:24:418
01:21:04.609                     : en:(15)01:21:04:609
01:27:36.918                     : en:(16)01:27:36:918
01:36:09.680                     : en:(17)01:36:09:680
01:42:27.432                     : en:(18)01:42:27:432
01:50:31.458                     : en:(19)01:50:31:458
.
Enjoy
